<?xml version="1.0" standalone="no"?><!DOCTYPE svg PUBLIC "-//W3C//DTD SVG 1.1//EN" "http://www.w3.org/Graphics/SVG/1.1/DTD/svg11.dtd"><svg t="1747128879229" class="icon" viewBox="0 0 1024 1024" version="1.1" xmlns="http://www.w3.org/2000/svg" p-id="1935" xmlns:xlink="http://www.w3.org/1999/xlink" width="200" height="200"><path d="M970.73664 218.4704l-436.84864 256.13312c-37.94432 25.45152-18.79552 63.50848 0 74.71616l436.84864 256.25088c32.22016-1.63328 52.65408-5.71904 53.23776-42.7264L1023.9744 261.1968C1023.9744 229.67808 1002.60864 217.6512 970.73664 218.4704L970.73664 218.4704zM458.70592 218.4704 21.85216 474.60352c-37.9392 25.45152-18.79552 63.50848 0 74.71616l436.85376 256.25088c32.22016-1.63328 52.64896-5.71904 53.23264-42.7264L511.93856 261.1968C511.93856 229.67808 490.5728 217.6512 458.70592 218.4704L458.70592 218.4704zM458.70592 218.4704" fill="#76c2af" p-id="1936"></path></svg>